<!DOCTYPE svg PUBLIC "-//W3C//DTD SVG 1.1//EN" "http://www.w3.org/Graphics/SVG/1.1/DTD/svg11.dtd">
<!-- Uploaded to: SVG Repo, www.svgrepo.com, Transformed by: SVG Repo Mixer Tools -->
<svg fill="#F55139" height="800px" width="800px" version="1.1" id="Layer_1" xmlns="http://www.w3.org/2000/svg" xmlns:xlink="http://www.w3.org/1999/xlink" viewBox="0 0 512 512" xml:space="preserve">
<g id="SVGRepo_bgCarrier" stroke-width="0"/>
<g id="SVGRepo_tracerCarrier" stroke-linecap="round" stroke-linejoin="round"/>
<g id="SVGRepo_iconCarrier"> <g> <g> <path d="M22.756,73.956v273.067h466.489V73.956H22.756z M178.268,268.514h-22.244v-28.467h-22.096v28.467h-22.244v-74.98h22.244 v26.829h22.096v-26.829h22.244V268.514z M250.46,213.218L250.46,213.218h-20.888v55.296h-22.245v-55.296h-20.991v-19.684h64.124 V213.218z M335.761,268.514h-0.002h-22.244v-34.161l-10.313,22.794h-12.117l-10.314-22.794v34.161h-22.242v-74.98h23.679 l14.94,32.616l15.038-32.616h23.575V268.514z M404.263,268.514h-55.215v-74.98h22.244v55.296h32.972V268.514z"/> </g> </g> <g> <g> <path d="M0,381.156v11.378c0,25.095,20.416,45.511,45.511,45.511h420.978c25.095,0,45.511-20.416,45.511-45.511v-11.378H0z"/> </g> </g> </g>
</svg>